<svg width="146" height="116" viewBox="0 0 146 116" fill="none" xmlns="http://www.w3.org/2000/svg">
<path d="M143.114 112.953H101.44C91.6819 104.213 71.7862 86.4292 70.2708 85.2097C69.8575 67.6492 85.3676 62.6493 93.1744 62.3444C108.903 76.3176 141.048 104.965 143.803 107.77C146.834 110.209 144.607 112.242 143.114 112.953Z" fill="#1B2B6B"/>
<path d="M54.2556 101.215V113.563C57.6997 117.343 60.168 114.731 60.9716 112.953C60.9142 101.724 60.6272 78.9294 59.9384 77.5879C56.9076 65.3931 44.325 62.3444 38.4125 62.3444H2.93785C-1.05736 63.5639 0.526948 67.0699 2.93785 68.2894H17.0588C22.3973 87.8011 39.1013 97.4045 54.2556 101.215Z" fill="#1B2B6B"/>
<path d="M45.3008 52.5885C42.7177 53.808 25.21 53.7572 16.0256 53.808C18.9187 28.0769 42.7177 17.0711 54.2556 14.7846V2.4373C57.5619 -1.3431 60.1106 1.26863 60.9716 3.04704V35.5158C58.3885 48.0155 47.0229 51.5215 45.3008 52.5885Z" fill="#1B2B6B"/>
<path d="M70.2708 30.9427C70.2708 48.6252 85.5398 53.554 93.1744 53.808C110.051 38.8185 144.01 8.50423 144.837 7.1628C146.765 4.11409 144.033 3.14866 142.426 3.04704H101.268C91.4523 11.8375 71.5107 29.7232 70.2708 30.9427Z" fill="#1B2B6B"/>
</svg>
